<?xml version="1.0" encoding="UTF-8" standalone="no"?>
<!-- Created with Inkscape (http://www.inkscape.org/) -->

<svg
   width="54.229702mm"
   height="43.992794mm"
   viewBox="0 0 54.229702 43.992794"
   version="1.1"
   id="svg1"
   xmlns="http://www.w3.org/2000/svg"
   xmlns:svg="http://www.w3.org/2000/svg">
  <defs
     id="defs1">
    <clipPath
       clipPathUnits="userSpaceOnUse"
       id="clipPath25">
      <path
         d="M 0,612 H 792 V 0 H 0 Z"
         transform="translate(-453.55179,-288.59671)"
         id="path25" />
    </clipPath>
  </defs>
  <g
     id="layer1"
     transform="translate(-56.287168,-144.60447)">
    <g
       id="g2"
       transform="translate(-94.085775,23.710522)">
      <path
         id="path24"
         clip-path="url(#clipPath25)"
         style="fill:currentColor;fill-opacity:1;fill-rule:nonzero;stroke:none"
         transform="matrix(0.35277776,0,0,-0.35277776,197.72764,146.68457)"
         d="m 0,0 h -5.212 l -6.486,-13.528 0.024,-0.012 -3.269,-6.819 c -1.949,-2.431 -4.831,-3.823 -7.951,-3.832 V 0 h -4.7 v -28.893 h 4.7 v 0.001 c 4.671,0.011 8.979,2.143 11.824,5.856 l 0.148,0.194 10.452,21.802 -0.023,0.012 z m -108.2061,26.594198 v 23.425 h -4.699 v -23.425 c 0,-8.232 6.697,-14.929 14.928997,-14.929 h 3.392 v 4.699 h -3.392 c -5.639997,0 -10.229997,4.589 -10.229997,10.23 m 29.534248,-10.5054 c -5.641,0 -10.229,4.589 -10.229,10.229 0,5.642 4.588,10.23 10.229,10.23 5.641,0 10.229,-4.588 10.229,-10.23 0,-5.64 -4.588,-10.229 -10.229,-10.229 m 10.229,21.088 c -2.673,2.521 -6.273,4.071 -10.229,4.071 -8.232,0 -14.93,-6.697 -14.93,-14.93 0,-8.231 6.698,-14.928 14.93,-14.928 8.232,0 14.93,6.697 14.93,14.928 v 23.701 h -4.701 z m 54.646,-21.088 c -5.641,0 -10.229,4.589 -10.229,10.229 0,5.642 4.588,10.23 10.229,10.23 5.641,0 10.229,-4.588 10.229,-10.23 0,-5.64 -4.588,-10.229 -10.229,-10.229 m 10.229,33.93 v -12.841 c -2.673,2.52 -6.272,4.07 -10.229,4.07 -8.231,0 -14.93,-6.697 -14.93,-14.93 0,-8.231 6.699,-14.928 14.93,-14.928 8.232,0 14.93,6.697 14.93,14.928 v 23.701 z m -42.498,-9.638 c -8.231,0 -14.929,-6.697 -14.929,-14.929 v -13.787 h 4.7 v 13.787 c 0,5.64 4.589,10.229 10.229,10.229 5.641,0 10.231,-4.589 10.231,-10.229 v -13.787 h 4.699 v 13.787 c 0,8.232 -6.697,14.929 -14.93,14.929 m -68.023938,-65.031505 h 19.506004 v -4.699 h -19.506004 z m 58.024289,8.633107 c -0.419,2.7 0.239,5.402 1.854,7.6069996 1.613,2.206 3.989,3.651 6.689,4.069 0.53,0.082 1.061,0.123 1.588,0.123 1.354,0 2.683,-0.27 3.924,-0.791 l -11.697,-16.1079996 c -1.237,1.434 -2.06,3.182 -2.358,5.1 m 20.155,3.396 c 0.489,-2.666 -0.067,-5.515 -1.79,-7.87 -2.846,-3.889 -7.94,-5.17 -12.203,-3.386 l 11.691,16.0989996 c 0.001,-0.003 0.003,-0.006 0.005,-0.008 l 2.819,3.881 c -0.536,0.538 -1.12,1.041 -1.752,1.503 -3.219,2.356 -7.161,3.317 -11.102,2.705 -3.941,-0.611 -7.408,-2.719 -9.762,-5.938 -2.355,-3.218 -3.316,-7.1609996 -2.706,-11.1019996 0.612,-3.94 2.72,-7.407 5.939,-9.761 2.652,-1.942 5.736,-2.876 8.796,-2.876 4.603,0 9.148,2.117 12.068,6.109 3.366,4.601 3.703,10.503 1.387,15.3119996 z m -42.516251,-12.028801 c -5.641,0 -10.229,4.589 -10.229,10.229 0,5.6420004 4.588,10.2310004 10.229,10.2310004 5.641,0 10.229,-4.589 10.229,-10.2310004 0,-5.64 -4.588,-10.229 -10.229,-10.229 m 10.229,33.6540004 v -12.565 c -2.673,2.52 -6.273,4.06999998 -10.229,4.06999998 -8.232,0 -14.93,-6.69699998 -14.93,-14.93000038 0,-8.232 6.698,-14.928 14.93,-14.928 8.232,0 14.93,6.696 14.93,14.928 V 9.0035994 Z M -129.53379,-46.897707 H 14.789214 v 115.305 H -129.53379 Z m 149.022004,-4.699 H -134.23379 v 124.704 H 19.488214 Z" />
    </g>
  </g>
</svg>
