<?xml version="1.0" encoding="UTF-8" standalone="no"?>
<!-- Created with Inkscape (http://www.inkscape.org/) -->

<svg
   width="45.382759mm"
   height="36.545582mm"
   viewBox="0 0 45.382759 36.545582"
   version="1.1"
   id="svg1"
   xmlns="http://www.w3.org/2000/svg"
   xmlns:svg="http://www.w3.org/2000/svg">
  <defs
     id="defs1" />
  <g
     id="layer1"
     transform="translate(-61.415769,-90.538144)">
    <path
       id="path324"
       style="fill:currentColor;fill-opacity:1;fill-rule:nonzero;stroke:none;stroke-width:0.352777"
       d="M 61.415767,90.538146 V 127.08372 H 106.79853 V 90.538146 Z m 5.77948,6.31538 h 1.43195 v 7.133414 c 0,1.71765 1.39743,3.11558 3.11505,3.11558 h 1.03304 v 1.43143 h -1.03304 c -2.5068,0 -4.547,-2.0402 -4.547,-4.54701 z m 13.540766,0 h 1.43198 v 7.217654 c 0,2.50717 -2.04021,4.54649 -4.54703,4.54649 -2.50682,0 -4.546986,-2.03932 -4.546986,-4.54649 0,-2.50683 2.040166,-4.547014 4.546986,-4.547014 1.20507,0 2.3005,0.47207 3.11505,1.239714 z m 19.756937,0 h 1.43145 v 7.217654 c 0,2.50717 -2.039677,4.54649 -4.546497,4.54649 -2.50719,0 -4.54649,-2.03932 -4.54649,-4.54649 0,-2.50683 2.0393,-4.547014 4.54649,-4.547014 1.20507,0 2.30048,0.47207 3.115047,1.239714 z m -12.942357,2.93522 c 2.50717,0 4.547,2.039684 4.547,4.546494 v 4.19819 h -1.43142 v -4.19819 c 0,-1.71765 -1.39759,-3.11557 -3.11558,-3.11557 -1.71802,0 -3.11504,1.39792 -3.11504,3.11557 v 4.19819 h -1.43092 v -4.19819 c 0,-2.50681 2.03914,-4.546494 4.54596,-4.546494 z m -9.92963,1.166854 c -1.71767,0 -3.11504,1.3979 -3.11504,3.11558 0,1.71802 1.39737,3.11505 3.11504,3.11505 1.71802,0 3.11505,-1.39703 3.11505,-3.11505 0,-1.71768 -1.39703,-3.11558 -3.11505,-3.11558 z m 19.75694,0 c -1.71767,0 -3.11557,1.3979 -3.11557,3.11558 0,1.71802 1.3979,3.11505 3.11557,3.11505 1.71768,0 3.115047,-1.39703 3.115047,-3.11505 0,-1.71768 -1.397367,-3.11558 -3.115047,-3.11558 z m -16.56696,8.38812 h 1.43145 v 7.13393 c 0,2.50683 -2.04018,4.54701 -4.54703,4.54701 -2.50682,0 -4.546456,-2.04018 -4.546456,-4.54701 0,-2.50719 2.039636,-4.54649 4.546456,-4.54649 1.20476,0 2.30103,0.47207 3.11558,1.23972 z m 6.7505,2.59571 c 0.96901,-0.007 1.91085,0.29578 2.70682,0.8785 0.19261,0.14076 0.37063,0.29365 0.53432,0.45734 l -0.85886,1.18235 c 0,-7.9e-4 0,-0.002 -0.003,-0.003 l -3.56052,4.90254 c 1.29823,0.54328 2.84946,0.15317 3.71658,-1.03146 0.52459,-0.71719 0.69355,-1.58484 0.54467,-2.39623 l 1.03301,-1.42162 c 0.70554,1.46437 0.60246,3.26205 -0.42273,4.66328 -0.88934,1.21531 -2.27327,1.86036 -3.67522,1.86036 -0.93167,0 -1.87086,-0.28467 -2.67837,-0.87592 -0.98039,-0.71684 -1.6219,-1.7728 -1.80817,-2.97295 -0.18592,-1.19979 0.10637,-2.40065 0.8232,-3.38067 0.71721,-0.98037 1.77282,-1.62225 2.97294,-1.80816 0.22503,-0.0349 0.45027,-0.0532 0.67387,-0.0548 z m 5.61464,0.14676 h 1.43145 v 7.36699 c 0.95001,-0.003 1.82766,-0.42637 2.42104,-1.16685 l 0.99529,-2.07688 -0.007,-0.003 1.97509,-4.12015 h 1.587497 l -0.14986,0.31315 0.007,0.004 -3.183787,6.63939 -0.045,0.0589 c -0.86606,1.13065 -2.17792,1.78001 -3.60029,1.78284 v 5.2e-4 h -1.43145 z m -15.48072,1.27641 c -1.71764,0 -3.11504,1.39703 -3.11504,3.11505 0,1.71767 1.3974,3.11506 3.11504,3.11506 1.71768,0 3.11558,-1.39739 3.11558,-3.11506 0,-1.71802 -1.3979,-3.11505 -3.11558,-3.11505 z m 9.89502,0.008 c -0.16052,0 -0.32213,0.0127 -0.48368,0.0377 -0.82233,0.12735 -1.54517,0.56767 -2.03658,1.23971 -0.49141,0.67134 -0.69217,1.49382 -0.56483,2.31614 0.0907,0.58385 0.34155,1.11649 0.71832,1.55288 l 3.56206,-4.90513 c -0.37783,-0.15875 -0.78288,-0.24133 -1.19529,-0.24133 z m -20.755306,6.22288 h 5.94021 v 1.43144 h -5.94021 z" />
  </g>
</svg>
