<?xml version="1.0" encoding="UTF-8" standalone="no"?>
<!-- Created with Inkscape (http://www.inkscape.org/) -->

<svg
   width="83.686363mm"
   height="14.071178mm"
   viewBox="0 0 83.686363 14.071178"
   version="1.1"
   id="svg1"
   xmlns="http://www.w3.org/2000/svg"
   xmlns:svg="http://www.w3.org/2000/svg">
  <defs
     id="defs1">
    <clipPath
       clipPathUnits="userSpaceOnUse"
       id="clipPath12">
      <path
         d="M 0,612 H 792 V 0 H 0 Z"
         transform="translate(-514.58891,-315.70561)"
         id="path12" />
    </clipPath>
  </defs>
  <g
     id="layer1"
     transform="translate(-59.650655,-28.180597)">
    <path
       id="path11"
       clip-path="url(#clipPath12)"
       style="fill:currentColor;fill-opacity:1;fill-rule:nonzero;stroke:none"
       transform="matrix(0.35277776,0,0,-0.35277776,143.33702,31.459347)"
       d="m 0,0 h -5.38 l -6.695,-13.963 0.025,-0.013 -3.375,-7.039 c -2.01,-2.509 -4.986,-3.945 -8.206,-3.956 V 0 h -4.85 v -29.823 h 4.85 v 0.001 c 4.821,0.011 9.269,2.212 12.205,6.044 l 0.153,0.2 10.789,22.505 -0.025,0.011 z M -232.3702,-14.898 V 9.2819996 h -4.851 V -14.898 c 0,-8.497 6.913,-15.41 15.41,-15.41 h 3.501 v 4.851 h -3.501 c -5.822,0 -10.559,4.737 -10.559,10.559 m 30.48489,-10.843703 c -5.822,0 -10.559,4.737 -10.559,10.56 0,5.8219998 4.737,10.5589996 10.559,10.5589996 5.823,0 10.56,-4.7369998 10.56,-10.5589996 0,-5.823 -4.737,-10.56 -10.56,-10.56 m 10.56,21.7679996 c -2.761,2.602 -6.476,4.20200003 -10.56,4.20200003 -8.498,0 -15.41,-6.91299983 -15.41,-15.40999963 0,-8.498 6.912,-15.411 15.41,-15.411 8.497,0 15.411,6.913 15.411,15.411 V 9.2812966 h -4.851 z m 56.405,-21.7679996 c -5.822,0 -10.559,4.737 -10.559,10.56 0,5.8219998 4.737,10.5589996 10.559,10.5589996 5.82201,0 10.55901,-4.7369998 10.55901,-10.5589996 0,-5.823 -4.737,-10.56 -10.55901,-10.56 m 10.55901,35.0229996 v -13.255 c -2.76,2.602 -6.475,4.20200003 -10.55901,4.20200003 -8.497,0 -15.41,-6.91299983 -15.41,-15.40999963 0,-8.498 6.913,-15.411 15.41,-15.411 8.49701,0 15.41001,6.913 15.41001,15.411 V 9.2812966 Z m -43.86701,-9.94899997 c -8.497,0 -15.41,-6.91199983 -15.41,-15.40999963 v -14.23 h 4.851 v 14.23 c 0,5.822 4.736,10.5599998 10.559,10.5599998 5.822,0 10.559,-4.7379998 10.559,-10.5599998 v -14.23 h 4.851 v 14.23 c 0,8.4979998 -6.912,15.40999963 -15.41,15.40999963 m 50.4644,-24.77590463 h 20.134 v -4.852 h -20.134 z m 59.892814,8.910908 c -0.432,2.786 0.248,5.575 1.913,7.8519996 1.666,2.276 4.118,3.768 6.905,4.199 0.547,0.085 1.095,0.127 1.64,0.127 1.397,0 2.77,-0.278 4.05,-0.816 l -12.072,-16.6259996 c -1.279,1.48 -2.128,3.284 -2.436,5.264 m 20.805,3.505 c 0.504,-2.751 -0.07,-5.693 -1.848,-8.123 -2.938,-4.015 -8.196,-5.337 -12.596,-3.495 l 12.067,16.6169996 c 0.002,-0.003 0.004,-0.005 0.007,-0.008 l 2.909,4.006 c -0.555,0.555 -1.157,1.074 -1.81,1.551 -3.321,2.43099999 -7.39,3.42399999 -11.459,2.79199999 -4.068,-0.63 -7.646,-2.80699999 -10.077,-6.12899999 -2.431,-3.322 -3.422,-7.3919996 -2.791,-11.4589996 0.63,-4.069 2.807,-7.647 6.129,-10.077 2.737,-2.003 5.922,-2.968 9.079,-2.968 4.752,0 9.443,2.185 12.457,6.306 3.475,4.749 3.823,10.841 1.432,15.8059996 z m -43.886101,-12.416201 c -5.822,0 -10.56,4.736 -10.56,10.559 0,5.8220004 4.738,10.5600004 10.56,10.5600004 5.822,0 10.56,-4.738 10.56,-10.5600004 0,-5.823 -4.738,-10.559 -10.56,-10.559 m 10.56,34.7380004 v -12.97 c -2.761,2.602 -6.476,4.20099996 -10.56,4.20099996 -8.498,0 -15.41,-6.91299996 -15.41,-15.41000036 0,-8.497 6.912,-15.411 15.41,-15.411 8.497,0 15.41,6.914 15.41,15.411 V 9.2940994 Z" />
  </g>
</svg>
